<?xml version="1.0" encoding="UTF-8" standalone="no"?>
<!DOCTYPE svg PUBLIC "-//W3C//DTD SVG 1.1//EN"
 "http://www.w3.org/Graphics/SVG/1.1/DTD/svg11.dtd">
<!-- Generated by graphviz version 2.43.0 (0)
 -->
<!-- Title: %3 Pages: 1 -->
<svg width="669pt" height="45pt"
 viewBox="0.00 0.00 669.00 45.00" xmlns="http://www.w3.org/2000/svg" xmlns:xlink="http://www.w3.org/1999/xlink">
<g id="graph0" class="graph" transform="scale(1 1) rotate(0) translate(4 41)">
<title>%3</title>
<polygon fill="white" stroke="transparent" points="-4,4 -4,-41 665,-41 665,4 -4,4"/>
<!-- 139959842184768 -->
<g id="node1" class="node">
<title>139959842184768</title>
<polygon fill="none" stroke="black" points="393,-0.5 393,-36.5 661,-36.5 661,-0.5 393,-0.5"/>
<text text-anchor="middle" x="406" y="-14.8" font-family="Times,serif" font-size="14.00">b</text>
<polyline fill="none" stroke="black" points="419,-0.5 419,-36.5 "/>
<text text-anchor="middle" x="479" y="-14.8" font-family="Times,serif" font-size="14.00">data 6.000000</text>
<polyline fill="none" stroke="black" points="539,-0.5 539,-36.5 "/>
<text text-anchor="middle" x="600" y="-14.8" font-family="Times,serif" font-size="14.00">grad 1.000000</text>
</g>
<!-- 139959842184768+ -->
<g id="node2" class="node">
<title>139959842184768+</title>
<ellipse fill="none" stroke="black" cx="330" cy="-18.5" rx="27" ry="18"/>
<text text-anchor="middle" x="330" y="-14.8" font-family="Times,serif" font-size="14.00">+</text>
</g>
<!-- 139959842184768+&#45;&gt;139959842184768 -->
<g id="edge1" class="edge">
<title>139959842184768+&#45;&gt;139959842184768</title>
<path fill="none" stroke="black" d="M357.3,-18.5C364.63,-18.5 373.14,-18.5 382.36,-18.5"/>
<polygon fill="black" stroke="black" points="382.63,-22 392.63,-18.5 382.63,-15 382.63,-22"/>
</g>
<!-- 139959842184576 -->
<g id="node3" class="node">
<title>139959842184576</title>
<polygon fill="none" stroke="black" points="0,-0.5 0,-36.5 267,-36.5 267,-0.5 0,-0.5"/>
<text text-anchor="middle" x="12.5" y="-14.8" font-family="Times,serif" font-size="14.00">a</text>
<polyline fill="none" stroke="black" points="25,-0.5 25,-36.5 "/>
<text text-anchor="middle" x="85" y="-14.8" font-family="Times,serif" font-size="14.00">data 3.000000</text>
<polyline fill="none" stroke="black" points="145,-0.5 145,-36.5 "/>
<text text-anchor="middle" x="206" y="-14.8" font-family="Times,serif" font-size="14.00">grad 2.000000</text>
</g>
<!-- 139959842184576&#45;&gt;139959842184768+ -->
<g id="edge2" class="edge">
<title>139959842184576&#45;&gt;139959842184768+</title>
<path fill="none" stroke="black" d="M267.19,-18.5C276.31,-18.5 284.96,-18.5 292.73,-18.5"/>
<polygon fill="black" stroke="black" points="292.75,-22 302.75,-18.5 292.75,-15 292.75,-22"/>
</g>
</g>
</svg>
