<?xml version="1.0" encoding="UTF-8" standalone="no"?>
<!DOCTYPE svg PUBLIC "-//W3C//DTD SVG 1.1//EN"
 "http://www.w3.org/Graphics/SVG/1.1/DTD/svg11.dtd">
<!-- Generated by graphviz version 2.43.0 (0)
 -->
<!-- Title: %3 Pages: 1 -->
<svg width="1877pt" height="210pt"
 viewBox="0.00 0.00 1877.00 210.00" xmlns="http://www.w3.org/2000/svg" xmlns:xlink="http://www.w3.org/1999/xlink">
<g id="graph0" class="graph" transform="scale(1 1) rotate(0) translate(4 206)">
<title>%3</title>
<polygon fill="white" stroke="transparent" points="-4,4 -4,-206 1873,-206 1873,4 -4,4"/>
<!-- 139789182066000 -->
<g id="node1" class="node">
<title>139789182066000</title>
<polygon fill="none" stroke="black" points="1602,-109.5 1602,-145.5 1869,-145.5 1869,-109.5 1602,-109.5"/>
<text text-anchor="middle" x="1614.5" y="-123.8" font-family="Times,serif" font-size="14.00">o</text>
<polyline fill="none" stroke="black" points="1627,-109.5 1627,-145.5 "/>
<text text-anchor="middle" x="1687" y="-123.8" font-family="Times,serif" font-size="14.00">data 0.707107</text>
<polyline fill="none" stroke="black" points="1747,-109.5 1747,-145.5 "/>
<text text-anchor="middle" x="1808" y="-123.8" font-family="Times,serif" font-size="14.00">grad 0.000000</text>
</g>
<!-- 139789182065808 -->
<g id="node2" class="node">
<title>139789182065808</title>
<polygon fill="none" stroke="black" points="1298,-109.5 1298,-145.5 1566,-145.5 1566,-109.5 1298,-109.5"/>
<text text-anchor="middle" x="1311" y="-123.8" font-family="Times,serif" font-size="14.00">n</text>
<polyline fill="none" stroke="black" points="1324,-109.5 1324,-145.5 "/>
<text text-anchor="middle" x="1384" y="-123.8" font-family="Times,serif" font-size="14.00">data 0.881374</text>
<polyline fill="none" stroke="black" points="1444,-109.5 1444,-145.5 "/>
<text text-anchor="middle" x="1505" y="-123.8" font-family="Times,serif" font-size="14.00">grad 0.000000</text>
</g>
<!-- 139789182065808&#45;&gt;139789182066000 -->
<g id="edge5" class="edge">
<title>139789182065808&#45;&gt;139789182066000</title>
<path fill="none" stroke="black" d="M1566.12,-127.5C1574.62,-127.5 1583.2,-127.5 1591.75,-127.5"/>
<polygon fill="black" stroke="black" points="1591.76,-131 1601.76,-127.5 1591.76,-124 1591.76,-131"/>
</g>
<!-- 139789182065808+ -->
<g id="node3" class="node">
<title>139789182065808+</title>
<ellipse fill="none" stroke="black" cx="1235" cy="-127.5" rx="27" ry="18"/>
<text text-anchor="middle" x="1235" y="-123.8" font-family="Times,serif" font-size="14.00">+</text>
</g>
<!-- 139789182065808+&#45;&gt;139789182065808 -->
<g id="edge1" class="edge">
<title>139789182065808+&#45;&gt;139789182065808</title>
<path fill="none" stroke="black" d="M1262.3,-127.5C1269.63,-127.5 1278.14,-127.5 1287.36,-127.5"/>
<polygon fill="black" stroke="black" points="1287.63,-131 1297.63,-127.5 1287.63,-124 1287.63,-131"/>
</g>
<!-- 139789368097232 -->
<g id="node4" class="node">
<title>139789368097232</title>
<polygon fill="none" stroke="black" points="871.5,-137.5 871.5,-173.5 1139.5,-173.5 1139.5,-137.5 871.5,-137.5"/>
<text text-anchor="middle" x="884.5" y="-151.8" font-family="Times,serif" font-size="14.00">b</text>
<polyline fill="none" stroke="black" points="897.5,-137.5 897.5,-173.5 "/>
<text text-anchor="middle" x="957.5" y="-151.8" font-family="Times,serif" font-size="14.00">data 6.881374</text>
<polyline fill="none" stroke="black" points="1017.5,-137.5 1017.5,-173.5 "/>
<text text-anchor="middle" x="1078.5" y="-151.8" font-family="Times,serif" font-size="14.00">grad 0.000000</text>
</g>
<!-- 139789368097232&#45;&gt;139789182065808+ -->
<g id="edge7" class="edge">
<title>139789368097232&#45;&gt;139789182065808+</title>
<path fill="none" stroke="black" d="M1139.82,-139.09C1161.3,-136.45 1181.82,-133.92 1198.19,-131.91"/>
<polygon fill="black" stroke="black" points="1198.82,-135.36 1208.32,-130.66 1197.97,-128.41 1198.82,-135.36"/>
</g>
<!-- 139789182065616 -->
<g id="node5" class="node">
<title>139789182065616</title>
<polygon fill="none" stroke="black" points="839,-82.5 839,-118.5 1172,-118.5 1172,-82.5 839,-82.5"/>
<text text-anchor="middle" x="882" y="-96.8" font-family="Times,serif" font-size="14.00">sum(xiwi)</text>
<polyline fill="none" stroke="black" points="925,-82.5 925,-118.5 "/>
<text text-anchor="middle" x="987.5" y="-96.8" font-family="Times,serif" font-size="14.00">data &#45;6.000000</text>
<polyline fill="none" stroke="black" points="1050,-82.5 1050,-118.5 "/>
<text text-anchor="middle" x="1111" y="-96.8" font-family="Times,serif" font-size="14.00">grad 0.000000</text>
</g>
<!-- 139789182065616&#45;&gt;139789182065808+ -->
<g id="edge6" class="edge">
<title>139789182065616&#45;&gt;139789182065808+</title>
<path fill="none" stroke="black" d="M1158.25,-118.51C1172.85,-120.24 1186.51,-121.86 1198.09,-123.24"/>
<polygon fill="black" stroke="black" points="1197.78,-126.73 1208.12,-124.43 1198.6,-119.77 1197.78,-126.73"/>
</g>
<!-- 139789182065616+ -->
<g id="node6" class="node">
<title>139789182065616+</title>
<ellipse fill="none" stroke="black" cx="776" cy="-100.5" rx="27" ry="18"/>
<text text-anchor="middle" x="776" y="-96.8" font-family="Times,serif" font-size="14.00">+</text>
</g>
<!-- 139789182065616+&#45;&gt;139789182065616 -->
<g id="edge2" class="edge">
<title>139789182065616+&#45;&gt;139789182065616</title>
<path fill="none" stroke="black" d="M803.1,-100.5C810.46,-100.5 819.07,-100.5 828.5,-100.5"/>
<polygon fill="black" stroke="black" points="828.61,-104 838.61,-100.5 828.61,-97 828.61,-104"/>
</g>
<!-- 139789183579472 -->
<g id="node7" class="node">
<title>139789183579472</title>
<polygon fill="none" stroke="black" points="411,-110.5 411,-146.5 713,-146.5 713,-110.5 411,-110.5"/>
<text text-anchor="middle" x="438.5" y="-124.8" font-family="Times,serif" font-size="14.00">x1w1</text>
<polyline fill="none" stroke="black" points="466,-110.5 466,-146.5 "/>
<text text-anchor="middle" x="528.5" y="-124.8" font-family="Times,serif" font-size="14.00">data &#45;6.000000</text>
<polyline fill="none" stroke="black" points="591,-110.5 591,-146.5 "/>
<text text-anchor="middle" x="652" y="-124.8" font-family="Times,serif" font-size="14.00">grad 0.000000</text>
</g>
<!-- 139789183579472&#45;&gt;139789182065616+ -->
<g id="edge9" class="edge">
<title>139789183579472&#45;&gt;139789182065616+</title>
<path fill="none" stroke="black" d="M699.36,-110.49C713.88,-108.57 727.58,-106.76 739.22,-105.23"/>
<polygon fill="black" stroke="black" points="739.84,-108.67 749.29,-103.9 738.92,-101.73 739.84,-108.67"/>
</g>
<!-- 139789183579472* -->
<g id="node8" class="node">
<title>139789183579472*</title>
<ellipse fill="none" stroke="black" cx="348" cy="-128.5" rx="27" ry="18"/>
<text text-anchor="middle" x="348" y="-124.8" font-family="Times,serif" font-size="14.00">*</text>
</g>
<!-- 139789183579472*&#45;&gt;139789183579472 -->
<g id="edge3" class="edge">
<title>139789183579472*&#45;&gt;139789183579472</title>
<path fill="none" stroke="black" d="M375.42,-128.5C382.84,-128.5 391.47,-128.5 400.89,-128.5"/>
<polygon fill="black" stroke="black" points="400.97,-132 410.97,-128.5 400.97,-125 400.97,-132"/>
</g>
<!-- 139789368097520 -->
<g id="node9" class="node">
<title>139789368097520</title>
<polygon fill="none" stroke="black" points="4.5,-165.5 4.5,-201.5 280.5,-201.5 280.5,-165.5 4.5,-165.5"/>
<text text-anchor="middle" x="21.5" y="-179.8" font-family="Times,serif" font-size="14.00">x1</text>
<polyline fill="none" stroke="black" points="38.5,-165.5 38.5,-201.5 "/>
<text text-anchor="middle" x="98.5" y="-179.8" font-family="Times,serif" font-size="14.00">data 2.000000</text>
<polyline fill="none" stroke="black" points="158.5,-165.5 158.5,-201.5 "/>
<text text-anchor="middle" x="219.5" y="-179.8" font-family="Times,serif" font-size="14.00">grad 0.000000</text>
</g>
<!-- 139789368097520&#45;&gt;139789183579472* -->
<g id="edge11" class="edge">
<title>139789368097520&#45;&gt;139789183579472*</title>
<path fill="none" stroke="black" d="M252.31,-165.45C263.44,-162.79 274.51,-159.82 285,-156.5 295.75,-153.1 307.11,-148.34 317.12,-143.71"/>
<polygon fill="black" stroke="black" points="318.73,-146.82 326.25,-139.36 315.72,-140.5 318.73,-146.82"/>
</g>
<!-- 139789183579568 -->
<g id="node10" class="node">
<title>139789183579568</title>
<polygon fill="none" stroke="black" points="0,-110.5 0,-146.5 285,-146.5 285,-110.5 0,-110.5"/>
<text text-anchor="middle" x="19" y="-124.8" font-family="Times,serif" font-size="14.00">w1</text>
<polyline fill="none" stroke="black" points="38,-110.5 38,-146.5 "/>
<text text-anchor="middle" x="100.5" y="-124.8" font-family="Times,serif" font-size="14.00">data &#45;3.000000</text>
<polyline fill="none" stroke="black" points="163,-110.5 163,-146.5 "/>
<text text-anchor="middle" x="224" y="-124.8" font-family="Times,serif" font-size="14.00">grad 0.000000</text>
</g>
<!-- 139789183579568&#45;&gt;139789183579472* -->
<g id="edge10" class="edge">
<title>139789183579568&#45;&gt;139789183579472*</title>
<path fill="none" stroke="black" d="M285.11,-128.5C294.31,-128.5 302.99,-128.5 310.78,-128.5"/>
<polygon fill="black" stroke="black" points="310.82,-132 320.82,-128.5 310.82,-125 310.82,-132"/>
</g>
<!-- 139789182065328 -->
<g id="node11" class="node">
<title>139789182065328</title>
<polygon fill="none" stroke="black" points="413.5,-55.5 413.5,-91.5 710.5,-91.5 710.5,-55.5 413.5,-55.5"/>
<text text-anchor="middle" x="441" y="-69.8" font-family="Times,serif" font-size="14.00">x2w2</text>
<polyline fill="none" stroke="black" points="468.5,-55.5 468.5,-91.5 "/>
<text text-anchor="middle" x="528.5" y="-69.8" font-family="Times,serif" font-size="14.00">data 0.000000</text>
<polyline fill="none" stroke="black" points="588.5,-55.5 588.5,-91.5 "/>
<text text-anchor="middle" x="649.5" y="-69.8" font-family="Times,serif" font-size="14.00">grad 0.000000</text>
</g>
<!-- 139789182065328&#45;&gt;139789182065616+ -->
<g id="edge8" class="edge">
<title>139789182065328&#45;&gt;139789182065616+</title>
<path fill="none" stroke="black" d="M704.41,-91.51C717.03,-93.12 728.9,-94.63 739.18,-95.94"/>
<polygon fill="black" stroke="black" points="738.91,-99.43 749.27,-97.22 739.79,-92.49 738.91,-99.43"/>
</g>
<!-- 139789182065328* -->
<g id="node12" class="node">
<title>139789182065328*</title>
<ellipse fill="none" stroke="black" cx="348" cy="-73.5" rx="27" ry="18"/>
<text text-anchor="middle" x="348" y="-69.8" font-family="Times,serif" font-size="14.00">*</text>
</g>
<!-- 139789182065328*&#45;&gt;139789182065328 -->
<g id="edge4" class="edge">
<title>139789182065328*&#45;&gt;139789182065328</title>
<path fill="none" stroke="black" d="M375.42,-73.5C383.41,-73.5 392.82,-73.5 403.1,-73.5"/>
<polygon fill="black" stroke="black" points="403.2,-77 413.2,-73.5 403.2,-70 403.2,-77"/>
</g>
<!-- 139789183579760 -->
<g id="node13" class="node">
<title>139789183579760</title>
<polygon fill="none" stroke="black" points="4.5,-55.5 4.5,-91.5 280.5,-91.5 280.5,-55.5 4.5,-55.5"/>
<text text-anchor="middle" x="21.5" y="-69.8" font-family="Times,serif" font-size="14.00">x2</text>
<polyline fill="none" stroke="black" points="38.5,-55.5 38.5,-91.5 "/>
<text text-anchor="middle" x="98.5" y="-69.8" font-family="Times,serif" font-size="14.00">data 0.000000</text>
<polyline fill="none" stroke="black" points="158.5,-55.5 158.5,-91.5 "/>
<text text-anchor="middle" x="219.5" y="-69.8" font-family="Times,serif" font-size="14.00">grad 0.000000</text>
</g>
<!-- 139789183579760&#45;&gt;139789182065328* -->
<g id="edge13" class="edge">
<title>139789183579760&#45;&gt;139789182065328*</title>
<path fill="none" stroke="black" d="M280.65,-73.5C291.56,-73.5 301.86,-73.5 310.94,-73.5"/>
<polygon fill="black" stroke="black" points="311,-77 321,-73.5 311,-70 311,-77"/>
</g>
<!-- 139789183579712 -->
<g id="node14" class="node">
<title>139789183579712</title>
<polygon fill="none" stroke="black" points="2.5,-0.5 2.5,-36.5 282.5,-36.5 282.5,-0.5 2.5,-0.5"/>
<text text-anchor="middle" x="21.5" y="-14.8" font-family="Times,serif" font-size="14.00">w2</text>
<polyline fill="none" stroke="black" points="40.5,-0.5 40.5,-36.5 "/>
<text text-anchor="middle" x="100.5" y="-14.8" font-family="Times,serif" font-size="14.00">data 1.000000</text>
<polyline fill="none" stroke="black" points="160.5,-0.5 160.5,-36.5 "/>
<text text-anchor="middle" x="221.5" y="-14.8" font-family="Times,serif" font-size="14.00">grad 0.000000</text>
</g>
<!-- 139789183579712&#45;&gt;139789182065328* -->
<g id="edge12" class="edge">
<title>139789183579712&#45;&gt;139789182065328*</title>
<path fill="none" stroke="black" d="M248.08,-36.54C260.62,-39.49 273.17,-42.8 285,-46.5 295.5,-49.78 306.63,-54.28 316.51,-58.67"/>
<polygon fill="black" stroke="black" points="315.36,-61.99 325.91,-62.97 318.27,-55.63 315.36,-61.99"/>
</g>
</g>
</svg>
