<?xml version="1.0" encoding="UTF-8" standalone="no"?>
<!DOCTYPE svg PUBLIC "-//W3C//DTD SVG 1.1//EN"
 "http://www.w3.org/Graphics/SVG/1.1/DTD/svg11.dtd">
<!-- Generated by graphviz version 2.43.0 (0)
 -->
<!-- Title: %3 Pages: 1 -->
<svg width="1058pt" height="154pt"
 viewBox="0.00 0.00 1058.00 154.00" xmlns="http://www.w3.org/2000/svg" xmlns:xlink="http://www.w3.org/1999/xlink">
<g id="graph0" class="graph" transform="scale(1 1) rotate(0) translate(4 150)">
<title>%3</title>
<polygon fill="white" stroke="transparent" points="-4,4 -4,-150 1054,-150 1054,4 -4,4"/>
<!-- 140682978189536 -->
<g id="node1" class="node">
<title>140682978189536</title>
<polygon fill="none" stroke="black" points="895,-81.5 895,-117.5 1050,-117.5 1050,-81.5 895,-81.5"/>
<text text-anchor="middle" x="908" y="-95.8" font-family="Times,serif" font-size="14.00">L</text>
<polyline fill="none" stroke="black" points="921,-81.5 921,-117.5 "/>
<text text-anchor="middle" x="954" y="-95.8" font-family="Times,serif" font-size="14.00">data &#45;8</text>
<polyline fill="none" stroke="black" points="987,-81.5 987,-117.5 "/>
<text text-anchor="middle" x="1018.5" y="-95.8" font-family="Times,serif" font-size="14.00">grad 1</text>
</g>
<!-- 140682978189536* -->
<g id="node2" class="node">
<title>140682978189536*</title>
<ellipse fill="none" stroke="black" cx="832" cy="-99.5" rx="27" ry="18"/>
<text text-anchor="middle" x="832" y="-95.8" font-family="Times,serif" font-size="14.00">*</text>
</g>
<!-- 140682978189536*&#45;&gt;140682978189536 -->
<g id="edge1" class="edge">
<title>140682978189536*&#45;&gt;140682978189536</title>
<path fill="none" stroke="black" d="M859.05,-99.5C866.65,-99.5 875.4,-99.5 884.59,-99.5"/>
<polygon fill="black" stroke="black" points="884.71,-103 894.71,-99.5 884.71,-96 884.71,-103"/>
</g>
<!-- 140682978172816 -->
<g id="node3" class="node">
<title>140682978172816</title>
<polygon fill="none" stroke="black" points="601.5,-109.5 601.5,-145.5 768.5,-145.5 768.5,-109.5 601.5,-109.5"/>
<text text-anchor="middle" x="620.5" y="-123.8" font-family="Times,serif" font-size="14.00">w6</text>
<polyline fill="none" stroke="black" points="639.5,-109.5 639.5,-145.5 "/>
<text text-anchor="middle" x="672.5" y="-123.8" font-family="Times,serif" font-size="14.00">data &#45;2</text>
<polyline fill="none" stroke="black" points="705.5,-109.5 705.5,-145.5 "/>
<text text-anchor="middle" x="737" y="-123.8" font-family="Times,serif" font-size="14.00">grad 4</text>
</g>
<!-- 140682978172816&#45;&gt;140682978189536* -->
<g id="edge5" class="edge">
<title>140682978172816&#45;&gt;140682978189536*</title>
<path fill="none" stroke="black" d="M768.67,-111.54C778.15,-109.71 787.39,-107.92 795.73,-106.31"/>
<polygon fill="black" stroke="black" points="796.61,-109.71 805.76,-104.37 795.28,-102.83 796.61,-109.71"/>
</g>
<!-- 140682978189440 -->
<g id="node4" class="node">
<title>140682978189440</title>
<polygon fill="none" stroke="black" points="601,-54.5 601,-90.5 769,-90.5 769,-54.5 601,-54.5"/>
<text text-anchor="middle" x="620" y="-68.8" font-family="Times,serif" font-size="14.00">w5</text>
<polyline fill="none" stroke="black" points="639,-54.5 639,-90.5 "/>
<text text-anchor="middle" x="670" y="-68.8" font-family="Times,serif" font-size="14.00">data 4</text>
<polyline fill="none" stroke="black" points="701,-54.5 701,-90.5 "/>
<text text-anchor="middle" x="735" y="-68.8" font-family="Times,serif" font-size="14.00">grad &#45;2</text>
</g>
<!-- 140682978189440&#45;&gt;140682978189536* -->
<g id="edge4" class="edge">
<title>140682978189440&#45;&gt;140682978189536*</title>
<path fill="none" stroke="black" d="M769.09,-87.97C778.43,-89.71 787.53,-91.41 795.76,-92.94"/>
<polygon fill="black" stroke="black" points="795.19,-96.39 805.66,-94.78 796.47,-89.51 795.19,-96.39"/>
</g>
<!-- 140682978189440+ -->
<g id="node5" class="node">
<title>140682978189440+</title>
<ellipse fill="none" stroke="black" cx="538" cy="-72.5" rx="27" ry="18"/>
<text text-anchor="middle" x="538" y="-68.8" font-family="Times,serif" font-size="14.00">+</text>
</g>
<!-- 140682978189440+&#45;&gt;140682978189440 -->
<g id="edge2" class="edge">
<title>140682978189440+&#45;&gt;140682978189440</title>
<path fill="none" stroke="black" d="M565.26,-72.5C572.81,-72.5 581.51,-72.5 590.7,-72.5"/>
<polygon fill="black" stroke="black" points="590.83,-76 600.83,-72.5 590.83,-69 590.83,-76"/>
</g>
<!-- 140682978172240 -->
<g id="node6" class="node">
<title>140682978172240</title>
<polygon fill="none" stroke="black" points="298,-82.5 298,-118.5 475,-118.5 475,-82.5 298,-82.5"/>
<text text-anchor="middle" x="317" y="-96.8" font-family="Times,serif" font-size="14.00">w3</text>
<polyline fill="none" stroke="black" points="336,-82.5 336,-118.5 "/>
<text text-anchor="middle" x="371.5" y="-96.8" font-family="Times,serif" font-size="14.00">data 10</text>
<polyline fill="none" stroke="black" points="407,-82.5 407,-118.5 "/>
<text text-anchor="middle" x="441" y="-96.8" font-family="Times,serif" font-size="14.00">grad &#45;2</text>
</g>
<!-- 140682978172240&#45;&gt;140682978189440+ -->
<g id="edge7" class="edge">
<title>140682978172240&#45;&gt;140682978189440+</title>
<path fill="none" stroke="black" d="M475.33,-84.05C484.71,-82.29 493.82,-80.59 502.02,-79.05"/>
<polygon fill="black" stroke="black" points="502.69,-82.49 511.87,-77.21 501.4,-75.61 502.69,-82.49"/>
</g>
<!-- 140682978172624 -->
<g id="node7" class="node">
<title>140682978172624</title>
<polygon fill="none" stroke="black" points="300.5,-27.5 300.5,-63.5 472.5,-63.5 472.5,-27.5 300.5,-27.5"/>
<text text-anchor="middle" x="319.5" y="-41.8" font-family="Times,serif" font-size="14.00">w4</text>
<polyline fill="none" stroke="black" points="338.5,-27.5 338.5,-63.5 "/>
<text text-anchor="middle" x="371.5" y="-41.8" font-family="Times,serif" font-size="14.00">data &#45;6</text>
<polyline fill="none" stroke="black" points="404.5,-27.5 404.5,-63.5 "/>
<text text-anchor="middle" x="438.5" y="-41.8" font-family="Times,serif" font-size="14.00">grad &#45;2</text>
</g>
<!-- 140682978172624&#45;&gt;140682978189440+ -->
<g id="edge6" class="edge">
<title>140682978172624&#45;&gt;140682978189440+</title>
<path fill="none" stroke="black" d="M472.73,-60.89C482.91,-62.73 492.83,-64.52 501.7,-66.13"/>
<polygon fill="black" stroke="black" points="501.13,-69.58 511.6,-67.91 502.38,-62.69 501.13,-69.58"/>
</g>
<!-- 140682978172624* -->
<g id="node8" class="node">
<title>140682978172624*</title>
<ellipse fill="none" stroke="black" cx="235" cy="-45.5" rx="27" ry="18"/>
<text text-anchor="middle" x="235" y="-41.8" font-family="Times,serif" font-size="14.00">*</text>
</g>
<!-- 140682978172624*&#45;&gt;140682978172624 -->
<g id="edge3" class="edge">
<title>140682978172624*&#45;&gt;140682978172624</title>
<path fill="none" stroke="black" d="M262.04,-45.5C270.35,-45.5 280.07,-45.5 290.36,-45.5"/>
<polygon fill="black" stroke="black" points="290.36,-49 300.36,-45.5 290.36,-42 290.36,-49"/>
</g>
<!-- 140682978144560 -->
<g id="node9" class="node">
<title>140682978144560</title>
<polygon fill="none" stroke="black" points="4.5,-55.5 4.5,-91.5 167.5,-91.5 167.5,-55.5 4.5,-55.5"/>
<text text-anchor="middle" x="23.5" y="-69.8" font-family="Times,serif" font-size="14.00">w1</text>
<polyline fill="none" stroke="black" points="42.5,-55.5 42.5,-91.5 "/>
<text text-anchor="middle" x="73.5" y="-69.8" font-family="Times,serif" font-size="14.00">data 2</text>
<polyline fill="none" stroke="black" points="104.5,-55.5 104.5,-91.5 "/>
<text text-anchor="middle" x="136" y="-69.8" font-family="Times,serif" font-size="14.00">grad 6</text>
</g>
<!-- 140682978144560&#45;&gt;140682978172624* -->
<g id="edge9" class="edge">
<title>140682978144560&#45;&gt;140682978172624*</title>
<path fill="none" stroke="black" d="M167.81,-58.11C178.79,-56.02 189.54,-53.97 199.08,-52.15"/>
<polygon fill="black" stroke="black" points="199.75,-55.59 208.92,-50.28 198.44,-48.71 199.75,-55.59"/>
</g>
<!-- 140682978144416 -->
<g id="node10" class="node">
<title>140682978144416</title>
<polygon fill="none" stroke="black" points="0,-0.5 0,-36.5 172,-36.5 172,-0.5 0,-0.5"/>
<text text-anchor="middle" x="19" y="-14.8" font-family="Times,serif" font-size="14.00">w2</text>
<polyline fill="none" stroke="black" points="38,-0.5 38,-36.5 "/>
<text text-anchor="middle" x="71" y="-14.8" font-family="Times,serif" font-size="14.00">data &#45;3</text>
<polyline fill="none" stroke="black" points="104,-0.5 104,-36.5 "/>
<text text-anchor="middle" x="138" y="-14.8" font-family="Times,serif" font-size="14.00">grad &#45;4</text>
</g>
<!-- 140682978144416&#45;&gt;140682978172624* -->
<g id="edge8" class="edge">
<title>140682978144416&#45;&gt;140682978172624*</title>
<path fill="none" stroke="black" d="M172.08,-34.13C181.46,-35.85 190.58,-37.52 198.81,-39.04"/>
<polygon fill="black" stroke="black" points="198.24,-42.49 208.7,-40.85 199.5,-35.6 198.24,-42.49"/>
</g>
</g>
</svg>
