<?xml version="1.0" encoding="UTF-8" standalone="no"?>
<!DOCTYPE svg PUBLIC "-//W3C//DTD SVG 1.1//EN"
 "http://www.w3.org/Graphics/SVG/1.1/DTD/svg11.dtd">
<!-- Generated by graphviz version 2.43.0 (0)
 -->
<!-- Title: %3 Pages: 1 -->
<svg width="1877pt" height="210pt"
 viewBox="0.00 0.00 1877.00 210.00" xmlns="http://www.w3.org/2000/svg" xmlns:xlink="http://www.w3.org/1999/xlink">
<g id="graph0" class="graph" transform="scale(1 1) rotate(0) translate(4 206)">
<title>%3</title>
<polygon fill="white" stroke="transparent" points="-4,4 -4,-206 1873,-206 1873,4 -4,4"/>
<!-- 139685836363840 -->
<g id="node1" class="node">
<title>139685836363840</title>
<polygon fill="none" stroke="black" points="1602,-109.5 1602,-145.5 1869,-145.5 1869,-109.5 1602,-109.5"/>
<text text-anchor="middle" x="1614.5" y="-123.8" font-family="Times,serif" font-size="14.00">o</text>
<polyline fill="none" stroke="black" points="1627,-109.5 1627,-145.5 "/>
<text text-anchor="middle" x="1687" y="-123.8" font-family="Times,serif" font-size="14.00">data 0.707107</text>
<polyline fill="none" stroke="black" points="1747,-109.5 1747,-145.5 "/>
<text text-anchor="middle" x="1808" y="-123.8" font-family="Times,serif" font-size="14.00">grad 1.000000</text>
</g>
<!-- 139685836363648 -->
<g id="node2" class="node">
<title>139685836363648</title>
<polygon fill="none" stroke="black" points="1298,-109.5 1298,-145.5 1566,-145.5 1566,-109.5 1298,-109.5"/>
<text text-anchor="middle" x="1311" y="-123.8" font-family="Times,serif" font-size="14.00">n</text>
<polyline fill="none" stroke="black" points="1324,-109.5 1324,-145.5 "/>
<text text-anchor="middle" x="1384" y="-123.8" font-family="Times,serif" font-size="14.00">data 0.881374</text>
<polyline fill="none" stroke="black" points="1444,-109.5 1444,-145.5 "/>
<text text-anchor="middle" x="1505" y="-123.8" font-family="Times,serif" font-size="14.00">grad 0.500000</text>
</g>
<!-- 139685836363648&#45;&gt;139685836363840 -->
<g id="edge5" class="edge">
<title>139685836363648&#45;&gt;139685836363840</title>
<path fill="none" stroke="black" d="M1566.12,-127.5C1574.62,-127.5 1583.2,-127.5 1591.75,-127.5"/>
<polygon fill="black" stroke="black" points="1591.76,-131 1601.76,-127.5 1591.76,-124 1591.76,-131"/>
</g>
<!-- 139685836363648+ -->
<g id="node3" class="node">
<title>139685836363648+</title>
<ellipse fill="none" stroke="black" cx="1235" cy="-127.5" rx="27" ry="18"/>
<text text-anchor="middle" x="1235" y="-123.8" font-family="Times,serif" font-size="14.00">+</text>
</g>
<!-- 139685836363648+&#45;&gt;139685836363648 -->
<g id="edge1" class="edge">
<title>139685836363648+&#45;&gt;139685836363648</title>
<path fill="none" stroke="black" d="M1262.3,-127.5C1269.63,-127.5 1278.14,-127.5 1287.36,-127.5"/>
<polygon fill="black" stroke="black" points="1287.63,-131 1297.63,-127.5 1287.63,-124 1287.63,-131"/>
</g>
<!-- 139686022363120 -->
<g id="node4" class="node">
<title>139686022363120</title>
<polygon fill="none" stroke="black" points="871.5,-137.5 871.5,-173.5 1139.5,-173.5 1139.5,-137.5 871.5,-137.5"/>
<text text-anchor="middle" x="884.5" y="-151.8" font-family="Times,serif" font-size="14.00">b</text>
<polyline fill="none" stroke="black" points="897.5,-137.5 897.5,-173.5 "/>
<text text-anchor="middle" x="957.5" y="-151.8" font-family="Times,serif" font-size="14.00">data 6.881374</text>
<polyline fill="none" stroke="black" points="1017.5,-137.5 1017.5,-173.5 "/>
<text text-anchor="middle" x="1078.5" y="-151.8" font-family="Times,serif" font-size="14.00">grad 0.500000</text>
</g>
<!-- 139686022363120&#45;&gt;139685836363648+ -->
<g id="edge7" class="edge">
<title>139686022363120&#45;&gt;139685836363648+</title>
<path fill="none" stroke="black" d="M1139.82,-139.09C1161.3,-136.45 1181.82,-133.92 1198.19,-131.91"/>
<polygon fill="black" stroke="black" points="1198.82,-135.36 1208.32,-130.66 1197.97,-128.41 1198.82,-135.36"/>
</g>
<!-- 139685836363456 -->
<g id="node5" class="node">
<title>139685836363456</title>
<polygon fill="none" stroke="black" points="839,-82.5 839,-118.5 1172,-118.5 1172,-82.5 839,-82.5"/>
<text text-anchor="middle" x="882" y="-96.8" font-family="Times,serif" font-size="14.00">sum(xiwi)</text>
<polyline fill="none" stroke="black" points="925,-82.5 925,-118.5 "/>
<text text-anchor="middle" x="987.5" y="-96.8" font-family="Times,serif" font-size="14.00">data &#45;6.000000</text>
<polyline fill="none" stroke="black" points="1050,-82.5 1050,-118.5 "/>
<text text-anchor="middle" x="1111" y="-96.8" font-family="Times,serif" font-size="14.00">grad 0.500000</text>
</g>
<!-- 139685836363456&#45;&gt;139685836363648+ -->
<g id="edge6" class="edge">
<title>139685836363456&#45;&gt;139685836363648+</title>
<path fill="none" stroke="black" d="M1158.25,-118.51C1172.85,-120.24 1186.51,-121.86 1198.09,-123.24"/>
<polygon fill="black" stroke="black" points="1197.78,-126.73 1208.12,-124.43 1198.6,-119.77 1197.78,-126.73"/>
</g>
<!-- 139685836363456+ -->
<g id="node6" class="node">
<title>139685836363456+</title>
<ellipse fill="none" stroke="black" cx="776" cy="-100.5" rx="27" ry="18"/>
<text text-anchor="middle" x="776" y="-96.8" font-family="Times,serif" font-size="14.00">+</text>
</g>
<!-- 139685836363456+&#45;&gt;139685836363456 -->
<g id="edge2" class="edge">
<title>139685836363456+&#45;&gt;139685836363456</title>
<path fill="none" stroke="black" d="M803.1,-100.5C810.46,-100.5 819.07,-100.5 828.5,-100.5"/>
<polygon fill="black" stroke="black" points="828.61,-104 838.61,-100.5 828.61,-97 828.61,-104"/>
</g>
<!-- 139685836363168 -->
<g id="node7" class="node">
<title>139685836363168</title>
<polygon fill="none" stroke="black" points="413.5,-110.5 413.5,-146.5 710.5,-146.5 710.5,-110.5 413.5,-110.5"/>
<text text-anchor="middle" x="441" y="-124.8" font-family="Times,serif" font-size="14.00">x2w2</text>
<polyline fill="none" stroke="black" points="468.5,-110.5 468.5,-146.5 "/>
<text text-anchor="middle" x="528.5" y="-124.8" font-family="Times,serif" font-size="14.00">data 0.000000</text>
<polyline fill="none" stroke="black" points="588.5,-110.5 588.5,-146.5 "/>
<text text-anchor="middle" x="649.5" y="-124.8" font-family="Times,serif" font-size="14.00">grad 0.500000</text>
</g>
<!-- 139685836363168&#45;&gt;139685836363456+ -->
<g id="edge9" class="edge">
<title>139685836363168&#45;&gt;139685836363456+</title>
<path fill="none" stroke="black" d="M699.36,-110.49C713.88,-108.57 727.58,-106.76 739.22,-105.23"/>
<polygon fill="black" stroke="black" points="739.84,-108.67 749.29,-103.9 738.92,-101.73 739.84,-108.67"/>
</g>
<!-- 139685836363168* -->
<g id="node8" class="node">
<title>139685836363168*</title>
<ellipse fill="none" stroke="black" cx="348" cy="-128.5" rx="27" ry="18"/>
<text text-anchor="middle" x="348" y="-124.8" font-family="Times,serif" font-size="14.00">*</text>
</g>
<!-- 139685836363168*&#45;&gt;139685836363168 -->
<g id="edge3" class="edge">
<title>139685836363168*&#45;&gt;139685836363168</title>
<path fill="none" stroke="black" d="M375.42,-128.5C383.41,-128.5 392.82,-128.5 403.1,-128.5"/>
<polygon fill="black" stroke="black" points="403.2,-132 413.2,-128.5 403.2,-125 403.2,-132"/>
</g>
<!-- 139685837844832 -->
<g id="node9" class="node">
<title>139685837844832</title>
<polygon fill="none" stroke="black" points="4.5,-165.5 4.5,-201.5 280.5,-201.5 280.5,-165.5 4.5,-165.5"/>
<text text-anchor="middle" x="21.5" y="-179.8" font-family="Times,serif" font-size="14.00">x2</text>
<polyline fill="none" stroke="black" points="38.5,-165.5 38.5,-201.5 "/>
<text text-anchor="middle" x="98.5" y="-179.8" font-family="Times,serif" font-size="14.00">data 0.000000</text>
<polyline fill="none" stroke="black" points="158.5,-165.5 158.5,-201.5 "/>
<text text-anchor="middle" x="219.5" y="-179.8" font-family="Times,serif" font-size="14.00">grad 0.500000</text>
</g>
<!-- 139685837844832&#45;&gt;139685836363168* -->
<g id="edge11" class="edge">
<title>139685837844832&#45;&gt;139685836363168*</title>
<path fill="none" stroke="black" d="M252.31,-165.45C263.44,-162.79 274.51,-159.82 285,-156.5 295.75,-153.1 307.11,-148.34 317.12,-143.71"/>
<polygon fill="black" stroke="black" points="318.73,-146.82 326.25,-139.36 315.72,-140.5 318.73,-146.82"/>
</g>
<!-- 139685837844784 -->
<g id="node10" class="node">
<title>139685837844784</title>
<polygon fill="none" stroke="black" points="2.5,-110.5 2.5,-146.5 282.5,-146.5 282.5,-110.5 2.5,-110.5"/>
<text text-anchor="middle" x="21.5" y="-124.8" font-family="Times,serif" font-size="14.00">w2</text>
<polyline fill="none" stroke="black" points="40.5,-110.5 40.5,-146.5 "/>
<text text-anchor="middle" x="100.5" y="-124.8" font-family="Times,serif" font-size="14.00">data 1.000000</text>
<polyline fill="none" stroke="black" points="160.5,-110.5 160.5,-146.5 "/>
<text text-anchor="middle" x="221.5" y="-124.8" font-family="Times,serif" font-size="14.00">grad 0.000000</text>
</g>
<!-- 139685837844784&#45;&gt;139685836363168* -->
<g id="edge10" class="edge">
<title>139685837844784&#45;&gt;139685836363168*</title>
<path fill="none" stroke="black" d="M282.61,-128.5C292.73,-128.5 302.28,-128.5 310.77,-128.5"/>
<polygon fill="black" stroke="black" points="310.92,-132 320.92,-128.5 310.92,-125 310.92,-132"/>
</g>
<!-- 139685837844640 -->
<g id="node11" class="node">
<title>139685837844640</title>
<polygon fill="none" stroke="black" points="411,-55.5 411,-91.5 713,-91.5 713,-55.5 411,-55.5"/>
<text text-anchor="middle" x="438.5" y="-69.8" font-family="Times,serif" font-size="14.00">x1w1</text>
<polyline fill="none" stroke="black" points="466,-55.5 466,-91.5 "/>
<text text-anchor="middle" x="528.5" y="-69.8" font-family="Times,serif" font-size="14.00">data &#45;6.000000</text>
<polyline fill="none" stroke="black" points="591,-55.5 591,-91.5 "/>
<text text-anchor="middle" x="652" y="-69.8" font-family="Times,serif" font-size="14.00">grad 0.500000</text>
</g>
<!-- 139685837844640&#45;&gt;139685836363456+ -->
<g id="edge8" class="edge">
<title>139685837844640&#45;&gt;139685836363456+</title>
<path fill="none" stroke="black" d="M704.41,-91.51C717.03,-93.12 728.9,-94.63 739.18,-95.94"/>
<polygon fill="black" stroke="black" points="738.91,-99.43 749.27,-97.22 739.79,-92.49 738.91,-99.43"/>
</g>
<!-- 139685837844640* -->
<g id="node12" class="node">
<title>139685837844640*</title>
<ellipse fill="none" stroke="black" cx="348" cy="-73.5" rx="27" ry="18"/>
<text text-anchor="middle" x="348" y="-69.8" font-family="Times,serif" font-size="14.00">*</text>
</g>
<!-- 139685837844640*&#45;&gt;139685837844640 -->
<g id="edge4" class="edge">
<title>139685837844640*&#45;&gt;139685837844640</title>
<path fill="none" stroke="black" d="M375.42,-73.5C382.84,-73.5 391.47,-73.5 400.89,-73.5"/>
<polygon fill="black" stroke="black" points="400.97,-77 410.97,-73.5 400.97,-70 400.97,-77"/>
</g>
<!-- 139685837844496 -->
<g id="node13" class="node">
<title>139685837844496</title>
<polygon fill="none" stroke="black" points="0,-55.5 0,-91.5 285,-91.5 285,-55.5 0,-55.5"/>
<text text-anchor="middle" x="19" y="-69.8" font-family="Times,serif" font-size="14.00">w1</text>
<polyline fill="none" stroke="black" points="38,-55.5 38,-91.5 "/>
<text text-anchor="middle" x="100.5" y="-69.8" font-family="Times,serif" font-size="14.00">data &#45;3.000000</text>
<polyline fill="none" stroke="black" points="163,-55.5 163,-91.5 "/>
<text text-anchor="middle" x="224" y="-69.8" font-family="Times,serif" font-size="14.00">grad 1.000000</text>
</g>
<!-- 139685837844496&#45;&gt;139685837844640* -->
<g id="edge13" class="edge">
<title>139685837844496&#45;&gt;139685837844640*</title>
<path fill="none" stroke="black" d="M285.11,-73.5C294.31,-73.5 302.99,-73.5 310.78,-73.5"/>
<polygon fill="black" stroke="black" points="310.82,-77 320.82,-73.5 310.82,-70 310.82,-77"/>
</g>
<!-- 139686022363408 -->
<g id="node14" class="node">
<title>139686022363408</title>
<polygon fill="none" stroke="black" points="2.5,-0.5 2.5,-36.5 282.5,-36.5 282.5,-0.5 2.5,-0.5"/>
<text text-anchor="middle" x="19.5" y="-14.8" font-family="Times,serif" font-size="14.00">x1</text>
<polyline fill="none" stroke="black" points="36.5,-0.5 36.5,-36.5 "/>
<text text-anchor="middle" x="96.5" y="-14.8" font-family="Times,serif" font-size="14.00">data 2.000000</text>
<polyline fill="none" stroke="black" points="156.5,-0.5 156.5,-36.5 "/>
<text text-anchor="middle" x="219.5" y="-14.8" font-family="Times,serif" font-size="14.00">grad &#45;1.500000</text>
</g>
<!-- 139686022363408&#45;&gt;139685837844640* -->
<g id="edge12" class="edge">
<title>139686022363408&#45;&gt;139685837844640*</title>
<path fill="none" stroke="black" d="M248.08,-36.54C260.62,-39.49 273.17,-42.8 285,-46.5 295.5,-49.78 306.63,-54.28 316.51,-58.67"/>
<polygon fill="black" stroke="black" points="315.36,-61.99 325.91,-62.97 318.27,-55.63 315.36,-61.99"/>
</g>
</g>
</svg>
