<?xml version="1.0" encoding="UTF-8" standalone="no"?>
<!DOCTYPE svg PUBLIC "-//W3C//DTD SVG 1.1//EN"
 "http://www.w3.org/Graphics/SVG/1.1/DTD/svg11.dtd">
<!-- Generated by graphviz version 2.43.0 (0)
 -->
<!-- Title: %3 Pages: 1 -->
<svg width="1526pt" height="154pt"
 viewBox="0.00 0.00 1526.00 154.00" xmlns="http://www.w3.org/2000/svg" xmlns:xlink="http://www.w3.org/1999/xlink">
<g id="graph0" class="graph" transform="scale(1 1) rotate(0) translate(4 150)">
<title>%3</title>
<polygon fill="white" stroke="transparent" points="-4,4 -4,-150 1522,-150 1522,4 -4,4"/>
<!-- 140137773310704 -->
<g id="node1" class="node">
<title>140137773310704</title>
<polygon fill="none" stroke="black" points="1245,-81.5 1245,-117.5 1518,-117.5 1518,-81.5 1245,-81.5"/>
<text text-anchor="middle" x="1258" y="-95.8" font-family="Times,serif" font-size="14.00">L</text>
<polyline fill="none" stroke="black" points="1271,-81.5 1271,-117.5 "/>
<text text-anchor="middle" x="1333.5" y="-95.8" font-family="Times,serif" font-size="14.00">data &#45;8.000000</text>
<polyline fill="none" stroke="black" points="1396,-81.5 1396,-117.5 "/>
<text text-anchor="middle" x="1457" y="-95.8" font-family="Times,serif" font-size="14.00">grad 1.000000</text>
</g>
<!-- 140137773310704* -->
<g id="node2" class="node">
<title>140137773310704*</title>
<ellipse fill="none" stroke="black" cx="1182" cy="-99.5" rx="27" ry="18"/>
<text text-anchor="middle" x="1182" y="-95.8" font-family="Times,serif" font-size="14.00">*</text>
</g>
<!-- 140137773310704*&#45;&gt;140137773310704 -->
<g id="edge1" class="edge">
<title>140137773310704*&#45;&gt;140137773310704</title>
<path fill="none" stroke="black" d="M1209.23,-99.5C1216.7,-99.5 1225.41,-99.5 1234.87,-99.5"/>
<polygon fill="black" stroke="black" points="1234.98,-103 1244.98,-99.5 1234.98,-96 1234.98,-103"/>
</g>
<!-- 140137775266208 -->
<g id="node3" class="node">
<title>140137775266208</title>
<polygon fill="none" stroke="black" points="834,-109.5 834,-145.5 1119,-145.5 1119,-109.5 834,-109.5"/>
<text text-anchor="middle" x="853" y="-123.8" font-family="Times,serif" font-size="14.00">w6</text>
<polyline fill="none" stroke="black" points="872,-109.5 872,-145.5 "/>
<text text-anchor="middle" x="934.5" y="-123.8" font-family="Times,serif" font-size="14.00">data &#45;2.000000</text>
<polyline fill="none" stroke="black" points="997,-109.5 997,-145.5 "/>
<text text-anchor="middle" x="1058" y="-123.8" font-family="Times,serif" font-size="14.00">grad 4.000000</text>
</g>
<!-- 140137775266208&#45;&gt;140137773310704* -->
<g id="edge5" class="edge">
<title>140137775266208&#45;&gt;140137773310704*</title>
<path fill="none" stroke="black" d="M1108.39,-109.49C1121.7,-107.66 1134.29,-105.93 1145.12,-104.44"/>
<polygon fill="black" stroke="black" points="1145.91,-107.86 1155.34,-103.03 1144.95,-100.93 1145.91,-107.86"/>
</g>
<!-- 140137775266064 -->
<g id="node4" class="node">
<title>140137775266064</title>
<polygon fill="none" stroke="black" points="834.5,-54.5 834.5,-90.5 1118.5,-90.5 1118.5,-54.5 834.5,-54.5"/>
<text text-anchor="middle" x="853.5" y="-68.8" font-family="Times,serif" font-size="14.00">w5</text>
<polyline fill="none" stroke="black" points="872.5,-54.5 872.5,-90.5 "/>
<text text-anchor="middle" x="932.5" y="-68.8" font-family="Times,serif" font-size="14.00">data 4.000000</text>
<polyline fill="none" stroke="black" points="992.5,-54.5 992.5,-90.5 "/>
<text text-anchor="middle" x="1055.5" y="-68.8" font-family="Times,serif" font-size="14.00">grad &#45;2.000000</text>
</g>
<!-- 140137775266064&#45;&gt;140137773310704* -->
<g id="edge4" class="edge">
<title>140137775266064&#45;&gt;140137773310704*</title>
<path fill="none" stroke="black" d="M1113.24,-90.51C1124.79,-92.04 1135.67,-93.49 1145.2,-94.75"/>
<polygon fill="black" stroke="black" points="1144.98,-98.25 1155.35,-96.1 1145.9,-91.31 1144.98,-98.25"/>
</g>
<!-- 140137775266064+ -->
<g id="node5" class="node">
<title>140137775266064+</title>
<ellipse fill="none" stroke="black" cx="771" cy="-72.5" rx="27" ry="18"/>
<text text-anchor="middle" x="771" y="-68.8" font-family="Times,serif" font-size="14.00">+</text>
</g>
<!-- 140137775266064+&#45;&gt;140137775266064 -->
<g id="edge2" class="edge">
<title>140137775266064+&#45;&gt;140137775266064</title>
<path fill="none" stroke="black" d="M798.19,-72.5C805.68,-72.5 814.42,-72.5 823.93,-72.5"/>
<polygon fill="black" stroke="black" points="824.1,-76 834.1,-72.5 824.1,-69 824.1,-76"/>
</g>
<!-- 140137775266400 -->
<g id="node6" class="node">
<title>140137775266400</title>
<polygon fill="none" stroke="black" points="415,-82.5 415,-118.5 708,-118.5 708,-82.5 415,-82.5"/>
<text text-anchor="middle" x="434" y="-96.8" font-family="Times,serif" font-size="14.00">w3</text>
<polyline fill="none" stroke="black" points="453,-82.5 453,-118.5 "/>
<text text-anchor="middle" x="517.5" y="-96.8" font-family="Times,serif" font-size="14.00">data 10.000000</text>
<polyline fill="none" stroke="black" points="582,-82.5 582,-118.5 "/>
<text text-anchor="middle" x="645" y="-96.8" font-family="Times,serif" font-size="14.00">grad &#45;2.000000</text>
</g>
<!-- 140137775266400&#45;&gt;140137775266064+ -->
<g id="edge7" class="edge">
<title>140137775266400&#45;&gt;140137775266064+</title>
<path fill="none" stroke="black" d="M695.97,-82.49C709.8,-80.62 722.86,-78.86 734.05,-77.35"/>
<polygon fill="black" stroke="black" points="734.73,-80.79 744.17,-75.99 733.79,-73.85 734.73,-80.79"/>
</g>
<!-- 140137775265968 -->
<g id="node7" class="node">
<title>140137775265968</title>
<polygon fill="none" stroke="black" points="417,-27.5 417,-63.5 706,-63.5 706,-27.5 417,-27.5"/>
<text text-anchor="middle" x="436" y="-41.8" font-family="Times,serif" font-size="14.00">w4</text>
<polyline fill="none" stroke="black" points="455,-27.5 455,-63.5 "/>
<text text-anchor="middle" x="517.5" y="-41.8" font-family="Times,serif" font-size="14.00">data &#45;6.000000</text>
<polyline fill="none" stroke="black" points="580,-27.5 580,-63.5 "/>
<text text-anchor="middle" x="643" y="-41.8" font-family="Times,serif" font-size="14.00">grad &#45;2.000000</text>
</g>
<!-- 140137775265968&#45;&gt;140137775266064+ -->
<g id="edge6" class="edge">
<title>140137775265968&#45;&gt;140137775266064+</title>
<path fill="none" stroke="black" d="M700.91,-63.51C712.92,-65.07 724.23,-66.54 734.08,-67.83"/>
<polygon fill="black" stroke="black" points="733.8,-71.32 744.17,-69.14 734.71,-64.38 733.8,-71.32"/>
</g>
<!-- 140137775265968* -->
<g id="node8" class="node">
<title>140137775265968*</title>
<ellipse fill="none" stroke="black" cx="352" cy="-45.5" rx="27" ry="18"/>
<text text-anchor="middle" x="352" y="-41.8" font-family="Times,serif" font-size="14.00">*</text>
</g>
<!-- 140137775265968*&#45;&gt;140137775265968 -->
<g id="edge3" class="edge">
<title>140137775265968*&#45;&gt;140137775265968</title>
<path fill="none" stroke="black" d="M379.28,-45.5C387.21,-45.5 396.55,-45.5 406.73,-45.5"/>
<polygon fill="black" stroke="black" points="406.74,-49 416.74,-45.5 406.74,-42 406.74,-49"/>
</g>
<!-- 140137775266976 -->
<g id="node9" class="node">
<title>140137775266976</title>
<polygon fill="none" stroke="black" points="4.5,-55.5 4.5,-91.5 284.5,-91.5 284.5,-55.5 4.5,-55.5"/>
<text text-anchor="middle" x="23.5" y="-69.8" font-family="Times,serif" font-size="14.00">w1</text>
<polyline fill="none" stroke="black" points="42.5,-55.5 42.5,-91.5 "/>
<text text-anchor="middle" x="102.5" y="-69.8" font-family="Times,serif" font-size="14.00">data 2.000000</text>
<polyline fill="none" stroke="black" points="162.5,-55.5 162.5,-91.5 "/>
<text text-anchor="middle" x="223.5" y="-69.8" font-family="Times,serif" font-size="14.00">grad 6.000000</text>
</g>
<!-- 140137775266976&#45;&gt;140137775265968* -->
<g id="edge9" class="edge">
<title>140137775266976&#45;&gt;140137775265968*</title>
<path fill="none" stroke="black" d="M277.68,-55.49C291.38,-53.62 304.31,-51.86 315.4,-50.35"/>
<polygon fill="black" stroke="black" points="315.98,-53.8 325.42,-48.99 315.04,-46.87 315.98,-53.8"/>
</g>
<!-- 140137775266832 -->
<g id="node10" class="node">
<title>140137775266832</title>
<polygon fill="none" stroke="black" points="0,-0.5 0,-36.5 289,-36.5 289,-0.5 0,-0.5"/>
<text text-anchor="middle" x="19" y="-14.8" font-family="Times,serif" font-size="14.00">w2</text>
<polyline fill="none" stroke="black" points="38,-0.5 38,-36.5 "/>
<text text-anchor="middle" x="100.5" y="-14.8" font-family="Times,serif" font-size="14.00">data &#45;3.000000</text>
<polyline fill="none" stroke="black" points="163,-0.5 163,-36.5 "/>
<text text-anchor="middle" x="226" y="-14.8" font-family="Times,serif" font-size="14.00">grad &#45;4.000000</text>
</g>
<!-- 140137775266832&#45;&gt;140137775265968* -->
<g id="edge8" class="edge">
<title>140137775266832&#45;&gt;140137775265968*</title>
<path fill="none" stroke="black" d="M282.57,-36.51C294.47,-38.07 305.67,-39.54 315.43,-40.83"/>
<polygon fill="black" stroke="black" points="315.05,-44.31 325.42,-42.14 315.96,-37.37 315.05,-44.31"/>
</g>
</g>
</svg>
